# xmcd
#
# Track frame offsets: 
#        150
#        14231
#        25868
#        41788
#        54216
#        75875
#        96964
#        113423
#        130716
#        145431
#
# Disc length: 2146 seconds
#
# Revision: 0
# Processed by: cddbd v1.5.2PL0 Copyright (c) Steve Scherf et al.
# Submitted via: ExactAudioCopy v1.0b2
#
DISCID=7908600a
DTITLE=Mary Gauthier - The Foundling Alone
DYEAR=2011
DGENRE=Country
TTITLE0=The Foundling
TTITLE1=Mama Here Mama Gone
TTITLE2=Goodbye
TTITLE3=Sideshow
TTITLE4=Blood Is Blood
TTITLE5=March 11, 1962
TTITLE6=Walk In The Water
TTITLE7=Sweet Words
TTITLE8=The Orphan King
TTITLE9=Another Day Borrowed
EXTD=
EXTT0=
EXTT1=
EXTT2=
EXTT3=
EXTT4=
EXTT5=
EXTT6=
EXTT7=
EXTT8=
EXTT9=
PLAYORDER=
